# Blender v3.2.2 OBJ File: ''
# www.blender.org
o Text.001
v -0.447000 0.000000 -1.208000
v -0.682000 0.000000 -1.025000
v -0.682000 0.000000 -0.907000
v -0.361000 0.000000 -1.160000
v -0.000000 0.000000 -1.160000
v -0.000000 0.000000 -1.258000
v -0.360000 0.000000 -1.258000
v -0.682000 0.000000 -1.511000
v -0.682000 0.000000 -1.393000
v -0.313000 0.000000 -0.852000
v -0.395000 0.000000 -0.852000
v -0.597000 0.000000 -0.378000
v -0.510000 0.000000 -0.378000
v -0.354000 0.000000 -0.754000
v -0.198000 0.000000 -0.378000
v -0.111000 0.000000 -0.378000
v -0.267000 0.000000 -0.283000
v -0.267000 0.000000 -0.040000
v -0.174000 0.000000 -0.040000
v -0.174000 0.000000 -0.283000
v -0.447000 0.200000 -1.208000
v -0.682000 0.200000 -1.025000
v -0.682000 0.200000 -0.907000
v -0.361000 0.200000 -1.160000
v -0.000000 0.200000 -1.160000
v -0.000000 0.200000 -1.258000
v -0.360000 0.200000 -1.258000
v -0.682000 0.200000 -1.511000
v -0.682000 0.200000 -1.393000
v -0.313000 0.200000 -0.852000
v -0.395000 0.200000 -0.852000
v -0.597000 0.200000 -0.378000
v -0.510000 0.200000 -0.378000
v -0.354000 0.200000 -0.754000
v -0.198000 0.200000 -0.378000
v -0.111000 0.200000 -0.378000
v -0.267000 0.200000 -0.283000
v -0.267000 0.200000 -0.040000
v -0.174000 0.200000 -0.040000
v -0.174000 0.200000 -0.283000
v 1.594000 0.000000 -0.682000
v 1.476000 0.000000 -0.682000
v 1.263000 0.000000 -0.422000
v 1.049000 0.000000 -0.682000
v 0.930000 0.000000 -0.682000
v 1.203000 0.000000 -0.353000
v 0.909000 0.000000 0.000000
v 1.028000 0.000000 0.000000
v 1.263000 0.000000 -0.282000
v 1.495000 0.000000 0.000000
v 1.613000 0.000000 0.000000
v 1.322000 0.000000 -0.353000
v 0.852000 0.000000 -0.313000
v 0.852000 0.000000 -0.395000
v 0.378000 0.000000 -0.597000
v 0.378000 0.000000 -0.510000
v 0.754000 0.000000 -0.354000
v 0.378000 0.000000 -0.198000
v 0.378000 0.000000 -0.111000
v 0.283000 0.000000 -0.267000
v 0.040000 0.000000 -0.267000
v 0.040000 0.000000 -0.174000
v 0.283000 0.000000 -0.174000
v 1.594000 0.200000 -0.682000
v 1.476000 0.200000 -0.682000
v 1.263000 0.200000 -0.422000
v 1.049000 0.200000 -0.682000
v 0.930000 0.200000 -0.682000
v 1.203000 0.200000 -0.353000
v 0.909000 0.200000 0.000000
v 1.028000 0.200000 0.000000
v 1.263000 0.200000 -0.282000
v 1.495000 0.200000 0.000000
v 1.613000 0.200000 0.000000
v 1.322000 0.200000 -0.353000
v 0.852000 0.200000 -0.313000
v 0.852000 0.200000 -0.395000
v 0.378000 0.200000 -0.597000
v 0.378000 0.200000 -0.510000
v 0.754000 0.200000 -0.354000
v 0.378000 0.200000 -0.198000
v 0.378000 0.200000 -0.111000
v 0.283000 0.200000 -0.267000
v 0.040000 0.200000 -0.267000
v 0.040000 0.200000 -0.174000
v 0.283000 0.200000 -0.174000
v 0.000000 1.357000 0.594000
v 0.000000 0.923000 -0.000000
v 0.000000 1.538000 0.000000
v 0.000000 1.538000 0.088000
v 0.000000 1.104000 0.088000
v 0.000000 1.538000 0.682000
v 0.000000 0.950000 0.682000
v 0.000000 0.950000 0.594000
v 0.000000 0.852000 0.313000
v 0.000000 0.852000 0.395000
v 0.000000 0.378000 0.597000
v 0.000000 0.378000 0.510000
v 0.000000 0.754000 0.354000
v 0.000000 0.378000 0.198000
v 0.000000 0.378000 0.111000
v 0.000000 0.283000 0.267000
v 0.000000 0.040000 0.267000
v 0.000000 0.040000 0.174000
v 0.000000 0.283000 0.174000
v 0.200000 1.357000 0.594000
v 0.200000 0.923000 -0.000000
v 0.200000 1.538000 -0.000000
v 0.200000 1.538000 0.088000
v 0.200000 1.104000 0.088000
v 0.200000 1.538000 0.682000
v 0.200000 0.950000 0.682000
v 0.200000 0.950000 0.594000
v 0.200000 0.852000 0.313000
v 0.200000 0.852000 0.395000
v 0.200000 0.378000 0.597000
v 0.200000 0.378000 0.510000
v 0.200000 0.754000 0.354000
v 0.200000 0.378000 0.198000
v 0.200000 0.378000 0.111000
v 0.200000 0.283000 0.267000
v 0.200000 0.040000 0.267000
v 0.200000 0.040000 0.174000
v 0.200000 0.283000 0.174000
vt 0.881127 0.766948
vt 0.770887 0.906817
vt 0.822303 0.906817
vt 0.902042 0.804420
vt 0.982652 0.906817
vt 1.034068 0.906817
vt 0.923828 0.766512
vt 0.881127 0.609649
vt 0.923828 0.609649
vt 0.540386 0.831871
vt 0.540386 0.869780
vt 0.746922 0.781762
vt 0.704220 0.763898
vt 0.746922 0.746033
vt 0.540386 0.695924
vt 0.540386 0.658015
vt 0.393109 0.685466
vt 0.393109 0.725989
vt 0.498992 0.725989
vt 0.498992 0.685466
vt 0.881127 0.766948
vt 0.822303 0.906817
vt 0.770887 0.906817
vt 0.902042 0.804420
vt 1.034068 0.906817
vt 0.982652 0.906817
vt 0.923828 0.766512
vt 0.881127 0.609649
vt 0.923828 0.609649
vt 0.540386 0.831871
vt 0.746922 0.781762
vt 0.540386 0.869780
vt 0.704220 0.763898
vt 0.746922 0.746033
vt 0.540386 0.695924
vt 0.540386 0.658015
vt 0.393109 0.685466
vt 0.498992 0.725989
vt 0.393109 0.725989
vt 0.498992 0.685466
vt 0.923828 0.364920
vt 0.881127 0.452065
vt 0.881127 0.364920
vt 0.393109 0.364920
vt 0.498992 0.452065
vt 0.498992 0.364920
vt 0.781762 0.364920
vt 0.746033 0.452065
vt 0.746033 0.364920
vt 0.766512 0.364920
vt 0.609649 0.452065
vt 0.609649 0.364920
vt 0.498992 0.364920
vt 0.393109 0.452065
vt 0.393109 0.364920
vt 0.982652 0.364920
vt 1.034068 0.452065
vt 1.034068 0.364920
vt 0.540386 0.364920
vt 0.704220 0.452065
vt 0.704220 0.364920
vt 0.766948 0.364920
vt 0.906817 0.452065
vt 0.906817 0.364920
vt 0.831871 0.364920
vt 0.869780 0.452065
vt 0.869780 0.364920
vt 0.725989 0.364920
vt 0.685466 0.452065
vt 0.685466 0.364920
vt 0.906817 0.364920
vt 0.766512 0.452065
vt 0.658015 0.364920
vt 0.695924 0.452065
vt 0.695924 0.364920
vt 0.770887 0.364920
vt 0.822303 0.452065
vt 0.822303 0.364920
vt 0.540386 0.364920
vt 0.746922 0.452065
vt 0.746922 0.364920
vt 0.746922 0.364920
vt 0.540386 0.452065
vt 0.540386 0.364920
vt 0.540386 0.452065
vt 0.540386 0.364920
vt 0.609649 0.364920
vt 0.766948 0.452065
vt 0.685466 0.364920
vt 0.725989 0.452065
vt 0.725989 0.364920
vt 0.906817 0.364920
vt 0.804420 0.452065
vt 0.804420 0.364920
vt 0.906817 0.452065
vt 0.906817 0.364920
vt 0.529493 0.085466
vt 0.672848 0.204420
vt 0.672848 0.152569
vt 0.559558 0.059322
vt 0.672848 -0.033488
vt 0.672848 -0.084904
vt 0.529493 0.033614
vt 0.375680 0.213571
vt 0.498556 0.059322
vt 0.375680 -0.093183
vt 0.375680 0.161719
vt 0.375680 -0.041767
vt 0.597902 0.444943
vt 0.635811 0.444943
vt 0.547793 0.238407
vt 0.529928 0.281109
vt 0.512063 0.238407
vt 0.461954 0.444943
vt 0.424046 0.444943
vt 0.451497 0.592220
vt 0.492020 0.592220
vt 0.492020 0.486338
vt 0.451497 0.486338
vt 0.529493 0.085466
vt 0.672848 0.152569
vt 0.672848 0.204420
vt 0.559558 0.059322
vt 0.672848 -0.084904
vt 0.672848 -0.033488
vt 0.529493 0.033614
vt 0.375680 0.213571
vt 0.498556 0.059322
vt 0.375680 -0.093183
vt 0.375680 0.161719
vt 0.375680 -0.041767
vt 0.597902 0.444943
vt 0.547793 0.238407
vt 0.635811 0.444943
vt 0.529928 0.281109
vt 0.512063 0.238407
vt 0.461954 0.444943
vt 0.424046 0.444943
vt 0.451497 0.592220
vt 0.492020 0.486338
vt 0.492020 0.592220
vt 0.451497 0.486338
vt 0.375680 0.364920
vt 0.529493 0.452065
vt 0.529493 0.364920
vt 0.672848 0.364920
vt 0.559558 0.452065
vt 0.559558 0.364920
vt 0.375680 0.364920
vt 0.498556 0.452065
vt 0.498556 0.364920
vt 0.592220 0.364920
vt 0.486338 0.452065
vt 0.486338 0.364920
vt 0.547793 0.364920
vt 0.512063 0.452065
vt 0.512063 0.364920
vt 0.672848 0.452065
vt 0.672848 0.364920
vt -0.093183 0.364920
vt -0.041767 0.452065
vt -0.041767 0.364920
vt 0.486338 0.364920
vt 0.592220 0.452065
vt 0.592220 0.364920
vt 0.444943 0.364920
vt 0.281109 0.452065
vt 0.281109 0.364920
vt 0.597902 0.364920
vt 0.635811 0.452065
vt 0.635811 0.364920
vt 0.492020 0.364920
vt 0.451497 0.452065
vt 0.451497 0.364920
vt -0.033488 0.364920
vt -0.084904 0.452065
vt -0.084904 0.364920
vt 0.672848 0.452065
vt 0.672848 0.364920
vt 0.424046 0.364920
vt 0.461954 0.452065
vt 0.461954 0.364920
vt 0.444943 0.364920
vt 0.238407 0.452065
vt 0.238407 0.364920
vt 0.529493 0.364920
vt 0.375680 0.452065
vt 0.375680 0.364920
vt 0.238407 0.364920
vt 0.444943 0.452065
vt 0.444943 0.364920
vt 0.672848 0.364920
vt 0.529493 0.452065
vt 0.444943 0.452065
vt 0.444943 0.364920
vt 0.204420 0.364920
vt 0.152569 0.452065
vt 0.152569 0.364920
vt 0.161719 0.364920
vt 0.213571 0.452065
vt 0.213571 0.364920
vt 0.451497 0.364920
vt 0.492020 0.452065
vt 0.492020 0.364920
vt 0.375680 0.452065
vt 0.375680 0.364920
vt 0.116856 0.778863
vt 0.078512 0.778863
vt 0.078512 1.035072
vt 0.116856 0.956205
vt 0.337336 0.845965
vt 0.375680 0.767098
vt 0.337336 1.035072
vt 0.375680 1.035072
vt 0.153458 0.529625
vt 0.115549 0.529625
vt 0.203567 0.736161
vt 0.221432 0.693460
vt 0.239297 0.736161
vt 0.289405 0.529625
vt 0.327314 0.529625
vt 0.299863 0.382349
vt 0.259340 0.382349
vt 0.259340 0.488231
vt 0.299863 0.488231
vt 0.116856 0.778863
vt 0.078512 1.035072
vt 0.078512 0.778863
vt 0.116856 0.956205
vt 0.337336 0.845965
vt 0.375680 0.767098
vt 0.337336 1.035072
vt 0.375680 1.035072
vt 0.153458 0.529625
vt 0.203567 0.736161
vt 0.115549 0.529625
vt 0.221432 0.693460
vt 0.239297 0.736161
vt 0.289405 0.529625
vt 0.327314 0.529625
vt 0.299863 0.382349
vt 0.259340 0.488231
vt 0.259340 0.382349
vt 0.299863 0.488231
vt 0.299863 0.609649
vt 0.259340 0.522503
vt 0.259340 0.609649
vt 0.609649 0.778863
vt 0.522503 1.035072
vt 0.609649 1.035072
vt 0.609649 0.845965
vt 0.522503 1.035072
vt 0.609649 1.035072
vt 0.609649 0.956205
vt 0.522503 0.778863
vt 0.609649 0.778863
vt 0.609649 1.035072
vt 0.522503 0.767098
vt 0.609649 0.767098
vt 0.609649 0.382349
vt 0.522503 0.488231
vt 0.609649 0.488231
vt 0.203567 0.609649
vt 0.239297 0.522503
vt 0.239297 0.609649
vt 0.375680 0.609649
vt 0.337336 0.522503
vt 0.375680 0.522503
vt 0.609649 0.488231
vt 0.522503 0.382349
vt 0.609649 0.382349
vt 0.609649 0.529625
vt 0.522503 0.693460
vt 0.609649 0.693460
vt 0.153458 0.609649
vt 0.115549 0.522503
vt 0.115549 0.609649
vt 0.259340 0.609649
vt 0.299863 0.522503
vt 0.299863 0.609649
vt 0.078512 0.609649
vt 0.337336 0.522503
vt 0.337336 0.609649
vt 0.375680 0.609649
vt 0.116856 0.522503
vt 0.116856 0.609649
vt 0.327314 0.609649
vt 0.289405 0.522503
vt 0.289405 0.609649
vt 0.116856 0.609649
vt 0.078512 0.522503
vt 0.078512 0.609649
vt 0.609649 0.529625
vt 0.522503 0.736161
vt 0.609649 0.736161
vt 0.609649 0.529625
vt 0.522503 0.736161
vt 0.522503 0.529625
vt 0.522503 0.529625
vt 0.609649 0.529625
vt 0.923828 0.452065
vt 0.393109 0.452065
vt 0.781762 0.452065
vt 0.498992 0.452065
vt 0.982652 0.452065
vt 0.540386 0.452065
vt 0.831871 0.452065
vt 0.725989 0.452065
vt 0.906817 0.452065
vt 0.658015 0.452065
vt 0.770887 0.452065
vt 0.540386 0.452065
vt 0.746922 0.452065
vt 0.609649 0.452065
vt 0.685466 0.452065
vt 0.906817 0.452065
vt 0.375680 0.452065
vt 0.672848 0.452065
vt 0.375680 0.452065
vt 0.592220 0.452065
vt 0.547793 0.452065
vt -0.093183 0.452065
vt 0.486338 0.452065
vt 0.444943 0.452065
vt 0.597902 0.452065
vt 0.492020 0.452065
vt -0.033488 0.452065
vt 0.424046 0.452065
vt 0.444943 0.452065
vt 0.238407 0.452065
vt 0.672848 0.452065
vt 0.204420 0.452065
vt 0.161719 0.452065
vt 0.451497 0.452065
vt 0.299863 0.522503
vt 0.522503 0.778863
vt 0.522503 0.845965
vt 0.522503 0.956205
vt 0.522503 1.035072
vt 0.522503 0.382349
vt 0.203567 0.522503
vt 0.337336 0.609649
vt 0.522503 0.488231
vt 0.522503 0.529625
vt 0.153458 0.522503
vt 0.259340 0.522503
vt 0.078512 0.522503
vt 0.375680 0.522503
vt 0.327314 0.522503
vt 0.116856 0.522503
vt 0.522503 0.529625
vt 0.609649 0.736161
vn 0.0000 -1.0000 0.0000
vn 0.0000 1.0000 0.0000
vn 1.0000 0.0000 -0.0000
vn -1.0000 0.0000 0.0000
vn 0.0000 0.0000 -1.0000
vn -0.9237 0.0000 0.3832
vn 0.6190 0.0000 0.7854
vn 0.0000 0.0000 1.0000
vn 0.6178 0.0000 -0.7863
vn -0.9199 0.0000 -0.3920
vn 0.9199 0.0000 -0.3920
vn 0.9237 0.0000 0.3832
vn -0.6144 0.0000 -0.7890
vn -0.6186 0.0000 0.7857
vn -0.7684 0.0000 -0.6400
vn 0.7721 0.0000 -0.6355
vn -0.7722 0.0000 0.6353
vn -0.7736 0.0000 -0.6337
vn -0.3832 0.0000 -0.9237
vn -0.7696 0.0000 0.6386
vn 0.3920 0.0000 -0.9199
vn 0.7716 0.0000 -0.6361
vn 0.3920 0.0000 0.9199
vn 0.7707 0.0000 0.6372
vn -0.3832 0.0000 0.9237
vn 0.7682 0.0000 0.6402
vn 0.0000 -0.3832 0.9237
vn -0.0000 0.8074 -0.5899
vn 0.0000 -0.8074 0.5899
vn 0.0000 0.3920 0.9199
vn -0.0000 0.3920 -0.9199
vn -0.0000 -0.3832 -0.9237
s off
f 4/1/1 3/2/1 2/3/1
f 4/1/1 2/3/1 1/4/1
f 1/4/1 9/5/1 8/6/1
f 1/4/1 8/6/1 7/7/1
f 4/1/1 1/4/1 7/7/1
f 5/8/1 4/1/1 7/7/1
f 5/8/1 7/7/1 6/9/1
f 13/10/1 12/11/1 11/12/1
f 14/13/1 13/10/1 11/12/1
f 14/13/1 11/12/1 10/14/1
f 15/15/1 14/13/1 10/14/1
f 15/15/1 10/14/1 16/16/1
f 19/17/1 18/18/1 17/19/1
f 19/17/1 17/19/1 20/20/1
f 24/21/2 22/22/2 23/23/2
f 24/21/2 21/24/2 22/22/2
f 21/24/2 28/25/2 29/26/2
f 21/24/2 27/27/2 28/25/2
f 24/21/2 27/27/2 21/24/2
f 25/28/2 27/27/2 24/21/2
f 25/28/2 26/29/2 27/27/2
f 33/30/2 31/31/2 32/32/2
f 34/33/2 31/31/2 33/30/2
f 34/33/2 30/34/2 31/31/2
f 35/35/2 30/34/2 34/33/2
f 35/35/2 36/36/2 30/34/2
f 39/37/2 37/38/2 38/39/2
f 39/37/2 40/40/2 37/38/2
f 6/41/3 25/42/3 5/43/3
f 18/44/4 37/45/4 17/46/4
f 11/47/5 30/48/5 10/49/5
f 7/50/5 26/51/5 6/52/5
f 20/53/3 39/54/3 19/55/3
f 9/56/4 28/57/4 8/58/4
f 15/59/6 34/60/6 14/61/6
f 4/62/7 23/63/7 3/64/7
f 13/65/8 32/66/8 12/67/8
f 17/68/5 40/69/5 20/70/5
f 8/71/9 27/72/9 7/50/9
f 16/73/8 35/74/8 15/75/8
f 3/76/4 22/77/4 2/78/4
f 12/79/10 31/80/10 11/81/10
f 10/82/11 36/83/11 16/84/11
f 14/61/12 33/85/12 13/86/12
f 5/87/8 24/88/8 4/62/8
f 19/89/8 38/90/8 18/91/8
f 2/92/13 21/93/13 1/94/13
f 1/94/14 29/95/14 9/96/14
f 46/97/1 45/98/1 44/99/1
f 46/97/1 44/99/1 43/100/1
f 43/100/1 42/101/1 41/102/1
f 43/100/1 41/102/1 52/103/1
f 46/97/1 43/100/1 52/103/1
f 47/104/1 46/97/1 52/103/1
f 47/104/1 52/103/1 49/105/1
f 49/105/1 52/103/1 51/106/1
f 47/104/1 49/105/1 48/107/1
f 50/108/1 49/105/1 51/106/1
f 56/109/1 55/110/1 54/111/1
f 57/112/1 56/109/1 54/111/1
f 57/112/1 54/111/1 53/113/1
f 58/114/1 57/112/1 53/113/1
f 58/114/1 53/113/1 59/115/1
f 62/116/1 61/117/1 60/118/1
f 62/116/1 60/118/1 63/119/1
f 69/120/2 67/121/2 68/122/2
f 69/120/2 66/123/2 67/121/2
f 66/123/2 64/124/2 65/125/2
f 66/123/2 75/126/2 64/124/2
f 69/120/2 75/126/2 66/123/2
f 70/127/2 75/126/2 69/120/2
f 70/127/2 72/128/2 75/126/2
f 72/128/2 74/129/2 75/126/2
f 70/127/2 71/130/2 72/128/2
f 73/131/2 74/129/2 72/128/2
f 79/132/2 77/133/2 78/134/2
f 80/135/2 77/133/2 79/132/2
f 80/135/2 76/136/2 77/133/2
f 81/137/2 76/136/2 80/135/2
f 81/137/2 82/138/2 76/136/2
f 85/139/2 83/140/2 84/141/2
f 85/139/2 86/142/2 83/140/2
f 47/143/15 69/144/15 46/145/15
f 44/146/16 66/147/16 43/148/16
f 50/149/17 72/150/17 49/151/17
f 61/152/5 83/153/5 60/154/5
f 54/155/3 76/156/3 53/157/3
f 43/148/18 65/158/18 42/159/18
f 51/160/8 73/161/8 50/162/8
f 63/163/8 85/164/8 62/165/8
f 58/166/19 80/167/19 57/168/19
f 56/169/4 78/170/4 55/171/4
f 60/172/3 86/173/3 63/174/3
f 42/175/5 64/176/5 41/177/5
f 46/145/20 68/178/20 45/179/20
f 59/180/4 81/181/4 58/182/4
f 55/183/21 77/184/21 54/185/21
f 52/186/22 74/187/22 51/188/22
f 53/189/23 82/190/23 59/191/23
f 41/192/24 75/193/24 52/186/24
f 57/168/25 79/194/25 56/195/25
f 45/196/5 67/197/5 44/198/5
f 48/199/8 70/200/8 47/201/8
f 62/202/4 84/203/4 61/204/4
f 49/151/26 71/205/26 48/206/26
f 94/207/4 93/208/4 92/209/4
f 94/207/4 92/209/4 87/210/4
f 87/210/4 92/209/4 91/211/4
f 88/212/4 87/210/4 91/211/4
f 88/212/4 91/211/4 90/213/4
f 88/212/4 90/213/4 89/214/4
f 98/215/4 97/216/4 96/217/4
f 99/218/4 98/215/4 96/217/4
f 99/218/4 96/217/4 95/219/4
f 100/220/4 99/218/4 95/219/4
f 100/220/4 95/219/4 101/221/4
f 104/222/4 103/223/4 102/224/4
f 104/222/4 102/224/4 105/225/4
f 113/226/3 111/227/3 112/228/3
f 113/226/3 106/229/3 111/227/3
f 106/229/3 110/230/3 111/227/3
f 107/231/3 110/230/3 106/229/3
f 107/231/3 109/232/3 110/230/3
f 107/231/3 108/233/3 109/232/3
f 117/234/3 115/235/3 116/236/3
f 118/237/3 115/235/3 117/234/3
f 118/237/3 114/238/3 115/235/3
f 119/239/3 114/238/3 118/237/3
f 119/239/3 120/240/3 114/238/3
f 123/241/3 121/242/3 122/243/3
f 123/241/3 124/244/3 121/242/3
f 104/245/1 122/246/1 103/247/1
f 93/248/8 111/249/8 92/250/8
f 91/251/8 109/252/8 90/253/8
f 87/254/5 113/255/5 94/256/5
f 89/257/5 107/258/5 88/259/5
f 103/260/8 121/261/8 102/262/8
f 96/263/2 114/264/2 95/265/2
f 89/266/2 109/267/2 108/268/2
f 105/269/5 123/270/5 104/271/5
f 100/272/27 118/273/27 99/274/27
f 98/275/1 116/276/1 97/277/1
f 102/278/2 124/279/2 105/280/2
f 92/281/28 110/282/28 91/283/28
f 88/284/29 106/285/29 87/286/29
f 101/287/1 119/288/1 100/289/1
f 94/290/1 112/291/1 93/292/1
f 97/293/30 115/294/30 96/295/30
f 101/296/31 114/297/31 120/298/31
f 99/274/32 117/299/32 98/300/32
f 6/41/3 26/301/3 25/42/3
f 18/44/4 38/302/4 37/45/4
f 11/47/5 31/303/5 30/48/5
f 7/50/5 27/72/5 26/51/5
f 20/53/3 40/304/3 39/54/3
f 9/56/4 29/305/4 28/57/4
f 15/59/6 35/306/6 34/60/6
f 4/62/7 24/88/7 23/63/7
f 13/65/8 33/307/8 32/66/8
f 17/68/5 37/308/5 40/69/5
f 8/71/9 28/309/9 27/72/9
f 16/73/8 36/310/8 35/74/8
f 3/76/4 23/311/4 22/77/4
f 12/79/10 32/312/10 31/80/10
f 10/82/11 30/313/11 36/83/11
f 14/61/12 34/60/12 33/85/12
f 5/87/8 25/314/8 24/88/8
f 19/89/8 39/315/8 38/90/8
f 2/92/13 22/316/13 21/93/13
f 1/94/14 21/93/14 29/95/14
f 47/143/15 70/317/15 69/144/15
f 44/146/16 67/318/16 66/147/16
f 50/149/17 73/319/17 72/150/17
f 61/152/5 84/320/5 83/153/5
f 54/155/3 77/321/3 76/156/3
f 43/148/18 66/147/18 65/158/18
f 51/160/8 74/322/8 73/161/8
f 63/163/8 86/323/8 85/164/8
f 58/166/19 81/324/19 80/167/19
f 56/169/4 79/325/4 78/170/4
f 60/172/3 83/326/3 86/173/3
f 42/175/5 65/327/5 64/176/5
f 46/145/20 69/144/20 68/178/20
f 59/180/4 82/328/4 81/181/4
f 55/183/21 78/329/21 77/184/21
f 52/186/22 75/193/22 74/187/22
f 53/189/23 76/330/23 82/190/23
f 41/192/24 64/331/24 75/193/24
f 57/168/25 80/167/25 79/194/25
f 45/196/5 68/332/5 67/197/5
f 48/199/8 71/333/8 70/200/8
f 62/202/4 85/334/4 84/203/4
f 49/151/26 72/150/26 71/205/26
f 104/245/1 123/335/1 122/246/1
f 93/248/8 112/336/8 111/249/8
f 91/251/8 110/337/8 109/252/8
f 87/254/5 106/338/5 113/255/5
f 89/257/5 108/339/5 107/258/5
f 103/260/8 122/340/8 121/261/8
f 96/263/2 115/341/2 114/264/2
f 89/266/2 90/342/2 109/267/2
f 105/269/5 124/343/5 123/270/5
f 100/272/27 119/344/27 118/273/27
f 98/275/1 117/345/1 116/276/1
f 102/278/2 121/346/2 124/279/2
f 92/281/28 111/347/28 110/282/28
f 88/284/29 107/348/29 106/285/29
f 101/287/1 120/349/1 119/288/1
f 94/290/1 113/350/1 112/291/1
f 97/293/30 116/351/30 115/294/30
f 101/296/31 95/352/31 114/297/31
f 99/274/32 118/273/32 117/299/32
